<?xml version="1.0" encoding="utf-8"?>
<!-- Generator: Adobe Illustrator 21.1.0, SVG Export Plug-In . SVG Version: 6.00 Build 0)  -->
<svg version="1.1" xmlns="http://www.w3.org/2000/svg" xmlns:xlink="http://www.w3.org/1999/xlink" x="0px" y="0px"
	 viewBox="0 0 438 475.5" style="enable-background:new 0 0 438 475.5;" xml:space="preserve">
	 
<style type="text/css">
	.st0{fill:#ED1D23;}
	.st1{fill:#0072BC;}
	.st2{fill:#01BEF3;}
	.st3{fill:url(#SVGID_1_);}
	.st4{fill:url(#SVGID_2_);}
	.st5{fill:url(#SVGID_3_);}
	.st6{fill:url(#SVGID_4_);}
	.st7{fill:url(#SVGID_5_);}
	.st8{fill:url(#SVGID_6_);}
</style>
<g id="Layer_2">
	<g>
		<g>
			<path class="st0" d="M37.9,162.2l248-142c0,0,33-5,27,32l-270,157l-16,10v-45C26.9,174.2,29.7,166.9,37.9,162.2z"/>
		</g>
		<g>
			<path class="st1" d="M411.1,96.6l-1.5,285.8c0,0-12.2,31.1-41.2,7.3L368,77.3l-0.6-18.9L406.3,81C406.3,81,411.2,87.1,411.1,96.6
				z"/>
		</g>
		<path class="st1" d="M37.9,217.2L313.6,59.5l-0.7,47.7l-270,157l-16,10v-45C26.9,229.2,29.7,221.9,37.9,217.2z"/>
		<path class="st2" d="M363.3,69.4l-1.8,317.7l-40.9-24.6l-0.4-312.3l-0.6-18.9l38.9,22.6C358.4,53.9,363.3,60,363.3,69.4z"/>
		<g>
			<path class="st2" d="M281.6,451.8L35.1,307.2c0,0-20.7-26.1,14.3-39.3l270.5,156.2l16.6,8.9l-39,22.4
				C297.5,455.3,289.8,456.5,281.6,451.8z"/>
		</g>
		<path class="st1" d="M329.3,424.4l-274-160.8l41.8-23.1l270.5,156.2l16.6,8.9l-39,22.4C345.2,428,337.5,429.2,329.3,424.4z"/>
	</g>
</g>
<g id="Layer_1">
	<g>
		<g>
			
				<linearGradient id="SVGID_1_" gradientUnits="userSpaceOnUse" x1="846.4413" y1="1012.0258" x2="1133.1705" y2="1012.0258" gradientTransform="matrix(-0.5014 0.8652 -0.8652 -0.5014 1753.5447 -116.4377)">
				<stop  offset="1.943109e-03" style="stop-color:#FFFFFF;stop-opacity:0.6"/>
				<stop  offset="7.903818e-02" style="stop-color:#0072BC"/>
				<stop  offset="0.9912" style="stop-color:#0072BC"/>
				<stop  offset="1" style="stop-color:#0072BC"/>
			</linearGradient>
			<path class="st3" d="M411.1,96.6l-1.5,285.8c0,0-12.2,31.1-41.2,7.3L368,77.3l-0.6-18.9L406.3,81C406.3,81,411.2,87.1,411.1,96.6
				z"/>
		</g>
		<path class="st2" d="M363.3,69.4l-1.8,317.7l-40.9-24.6l-0.4-312.3l-0.6-18.9l38.9,22.6C358.4,53.9,363.3,60,363.3,69.4z"/>
		<g>
			<linearGradient id="SVGID_2_" gradientUnits="userSpaceOnUse" x1="26.8544" y1="119.6115" x2="313.5836" y2="119.6115">
				<stop  offset="1.943109e-03" style="stop-color:#FFFFFF;stop-opacity:0.6"/>
				<stop  offset="7.551254e-02" style="stop-color:#ED1D23"/>
				<stop  offset="0.9912" style="stop-color:#ED1D23"/>
				<stop  offset="1" style="stop-color:#ED1D23"/>
			</linearGradient>
			<path class="st4" d="M37.9,162.2l248-142c0,0,33-5,27,32l-270,157l-16,10v-45C26.9,174.2,29.7,166.9,37.9,162.2z"/>
		</g>
		<linearGradient id="SVGID_3_" gradientUnits="userSpaceOnUse" x1="26.8544" y1="166.8497" x2="313.5836" y2="166.8497">
			<stop  offset="1.943109e-03" style="stop-color:#FFFFFF;stop-opacity:0.6"/>
			<stop  offset="7.903818e-02" style="stop-color:#0072BC"/>
			<stop  offset="0.9912" style="stop-color:#0072BC"/>
			<stop  offset="1" style="stop-color:#0072BC"/>
		</linearGradient>
		<path class="st5" d="M37.9,217.2L313.6,59.5l-0.7,47.7l-270,157l-16,10v-45C26.9,229.2,29.7,221.9,37.9,217.2z"/>
		
			<linearGradient id="SVGID_4_" gradientUnits="userSpaceOnUse" x1="166.3374" y1="302.9563" x2="453.0666" y2="302.9563" gradientTransform="matrix(-0.5015 0.8652 -0.8652 -0.5015 757.8917 93.1899)">
			<stop  offset="1.943109e-03" style="stop-color:#FFFFFF;stop-opacity:0.6"/>
			<stop  offset="7.707504e-02" style="stop-color:#01BEF3"/>
			<stop  offset="0.2912" style="stop-color:#01BAF0"/>
			<stop  offset="0.5019" style="stop-color:#01AEE8"/>
			<stop  offset="0.7113" style="stop-color:#019AD9"/>
			<stop  offset="0.9187" style="stop-color:#007FC5"/>
			<stop  offset="1" style="stop-color:#0072BC"/>
		</linearGradient>
		<path class="st6" d="M363.3,69.4l-1.8,317.7l-40.9-24.6l-0.4-312.3l-0.6-18.9l38.9,22.6C358.4,53.9,363.3,60,363.3,69.4z"/>
		<g>
			
				<linearGradient id="SVGID_5_" gradientUnits="userSpaceOnUse" x1="289.8709" y1="367.3068" x2="576.6001" y2="367.3068" gradientTransform="matrix(-0.4973 -0.8676 0.8676 -0.4973 75.5885 916.6428)">
				<stop  offset="1.943109e-03" style="stop-color:#FFFFFF;stop-opacity:0.6"/>
				<stop  offset="7.354940e-02" style="stop-color:#01BEF3"/>
				<stop  offset="0.9912" style="stop-color:#01BEF3"/>
				<stop  offset="1" style="stop-color:#01BEF3"/>
			</linearGradient>
			<path class="st7" d="M281.6,451.8L35.1,307.2c0,0-20.7-26.1,14.3-39.3l270.5,156.2l16.6,8.9l-39,22.4
				C297.5,455.3,289.8,456.5,281.6,451.8z"/>
		</g>
		
			<linearGradient id="SVGID_6_" gradientUnits="userSpaceOnUse" x1="289.8709" y1="414.545" x2="576.6001" y2="414.545" gradientTransform="matrix(-0.4973 -0.8676 0.8676 -0.4973 75.5885 916.6428)">
			<stop  offset="1.943109e-03" style="stop-color:#FFFFFF;stop-opacity:0.6"/>
			<stop  offset="7.903818e-02" style="stop-color:#0072BC"/>
			<stop  offset="0.9912" style="stop-color:#0072BC"/>
			<stop  offset="1" style="stop-color:#0072BC"/>
		</linearGradient>
		<path class="st8" d="M329.3,424.4l-274-160.8l41.8-23.1l270.5,156.2l16.6,8.9l-39,22.4C345.2,428,337.5,429.2,329.3,424.4z"/>
	</g>
</g>
</svg>
